<svg xmlns="http://www.w3.org/2000/svg" viewBox="0 0 300 300"><title>full.logo.square</title><path d="M117.47,254.29l1.09-1.09a7.79,7.79,0,1,0-11-11l-1.09,1.09-5.06,5.06a7.79,7.79,0,1,0,11,11Z" style="fill:#1d6f68"/><path d="M130.42,270a7.79,7.79,0,0,0-11-11l-1.09,1.09-5.06,5.06a7.79,7.79,0,1,0,11,11l5.06-5.06Z" style="fill:#1d6f68"/><path d="M147.51,270.55a7.8,7.8,0,0,0-11,0l-1.08,1.09-5.06,5.06a7.79,7.79,0,1,0,11,11l5.06-5.06,1.09-1.09A7.8,7.8,0,0,0,147.51,270.55Z" style="fill:#1d6f68"/><path d="M153.39,282.3l-1.09,1.1L149,286.69a7.8,7.8,0,1,0,11,11l3.3-3.31,1.09-1.09a7.79,7.79,0,0,0-11-11Z" style="fill:#1d6f68"/><path d="M180,168.54l8.93-8.92a5.14,5.14,0,0,1,7.27,0L243.55,207a5.17,5.17,0,0,1,0,7.28l-25.66,25.65-42-42a2.3,2.3,0,0,0-3-.26L161.37,209.2l-1.09,1.09-5.06,5.06a7.8,7.8,0,0,1-11,0l-5.51-5.51Z" style="fill:#1d6f68"/><path d="M243.59,39.88a5.14,5.14,0,0,0,.29-7l0-.07a123.34,123.34,0,0,0-171,177.71l29.87,29.88,2-2c4.87-4.87,12.36-4.46,17.23.41a12.31,12.31,0,0,1,3.16,13,13.2,13.2,0,0,1,12.54,12.37,12.33,12.33,0,0,1,13.25,3,12.81,12.81,0,0,1,3.85,8.64,12.77,12.77,0,0,1,15.61,17.43,6.66,6.66,0,0,0,5.17-1.94,6.78,6.78,0,0,0,.28-9.29l0,0-.31-.31h0l-15.52-15.53h0l-7.44-7.44a2.34,2.34,0,0,1,3.3-3.31l23.28,23.28,0,0a6.79,6.79,0,0,0,9.58-9.58l0,0-.3-.31h0l-15.52-15.52h0l-7.44-7.44a2.34,2.34,0,0,1,3.31-3.31l25.58,25.58,0,0a6.78,6.78,0,0,0,9.58-9.57l0,0-.31-.31h0l-7-7-18.25-18.25a2.34,2.34,0,0,1,3.31-3.3L205,252.86l0,0a6.78,6.78,0,0,0,9.57-9.57l0,0-.31-.3h0l-15.52-15.53h0L174.27,202.9l-9.2,9.2-7,7c-4.87,4.87-12.36,4.47-17.23-.4l-8.82-8.82,8.41-8.41,7-7,9.26-9.26-29.33-29.33A46.17,46.17,0,0,1,189.2,87.45l.08.07a5.15,5.15,0,0,0,7-.29Z" style="fill:#2eafa4"/></svg>